<svg xmlns="http://www.w3.org/2000/svg" width="622.604" height="627.281" viewBox="0 0 622.604 627.281"><defs><style>.a{fill:#fefefe;}.b{fill:#282d78;}.c{fill:#2b3173;}.d{fill:#313077;}.e{fill:#e9e9e8;}.f{fill:#c1c4d0;}.g{fill:#c5c7cc;}.h{fill:#c7c7cd;}.i{fill:#2d2e79;}.j{fill:#c7c7d2;}.k{fill:#2d3074;}.l{fill:#c5c7cd;}.m{fill:#c6c7cc;}.n{fill:#282d71;}.o{fill:#c3c6cc;}.p{fill:#c2c5cc;}.q{fill:#c7c5cc;}.r{fill:#c7c7ce;}.s{fill:#c3c4d1;}.t{fill:#c6c7cd;}.u{fill:#2c2e68;}.v{fill:#2d2f68;}.w{fill:#c7c7e1;}.x{fill:#2f3174;}.y{fill:#303076;}.z{fill:#30356f;}.aa{fill:#c4c5cd;}.ab{fill:#30336e;}.ac{fill:#c0c4da;}.ad{fill:#303174;}.ae{fill:#303165;}.af{fill:#2f3069;}.ag{fill:#c5c8dc;}.ah{fill:#323172;}.ai{fill:#2e2e68;}.aj{fill:#c2c3d0;}.ak{fill:#2b3271;}.al{fill:#2d2d6b;}.am{fill:#c1c4d1;}.an{fill:#2f315c;}.ao{fill:#c4c7dd;}.ap{fill:#32376a;}.aq{fill:#d0ccdf;}.ar{fill:#1f2657;}.as{fill:#242157;}.at{fill:#353571;}.au{fill:#c5c6dd;}.av{fill:#807f9f;}.aw{fill:#c9cce1;}.ax{fill:#bdc7e3;}.ay{fill:#222757;}.az{fill:#1b1c56;}.ba{fill:#2c2d68;}.bb{fill:#313173;}.bc{fill:#32385f;}.bd{fill:#252856;}.be{fill:#2e3068;}.bf{fill:#2f3167;}.bg{fill:#303461;}.bh{fill:#1e205f;}.bi{fill:#262957;}.bj{fill:#302e63;}.bk{fill:#333067;}.bl{fill:#22236b;}</style></defs><g transform="matrix(0.921, -0.391, 0.391, 0.921, -8.537, 181.279)"><path class="a" d="M6.7,246.762q0-118.775-.1-237.648C6.6,6.785,7.085,6.3,9.414,6.3q233.33.146,466.562,0c2.329,0,2.814.485,2.814,2.814q-.146,237.7,0,475.393c0,2.329-.485,2.814-2.814,2.814q-233.33-.146-466.562,0c-2.329,0-2.814-.485-2.814-2.814Q6.746,365.586,6.7,246.762Z" transform="translate(0 0)"/><path class="b" d="M392.521,184.857c1.358,1.553,3.687.485,5.143,1.844,1.456,1.262,3.4,1.262,4.949,2.232s3.493.485,5.143,1.164h0c.776,1.262,1.65,2.523,3.4,1.359a8.222,8.222,0,0,1,3.4,1.456c.582,1.553-.679,1.844-1.844,2.329a5.976,5.976,0,0,0,3.687,0,2.01,2.01,0,0,1,2.232.388c1.747,3.4,5.822,2.62,8.151,4.658,5.046,2.232,8.442,6.308,12.324,10,.679.679,1.164,1.65,2.329,1.747a63.076,63.076,0,0,1,11.936,16.205c4.367,8.054,6.793,16.788,8.539,25.812a111.843,111.843,0,0,1,1.067,31.149,96.94,96.94,0,0,1-3.687,19.02l.1-.1c-.776,2.717-.291,5.919-2.523,8.248a.642.642,0,0,0-.1.582c-.679.873,0,2.135-.873,3.008-.679.776-1.941,1.261-1.456,2.717a3.659,3.659,0,0,1-.679,2.038c-1.456,1.553-1.359,3.493-1.65,5.434a1.932,1.932,0,0,1-.776,1.164c-2.717,5.337-5.434,10.771-8.151,16.108-.776,1.359-.97,3.008-2.523,3.785-2.911.97-2.717,4.076-4.076,6.113a10.049,10.049,0,0,1-2.717,3.882c-1.456.485-1.65,1.747-2.038,2.911A154.383,154.383,0,0,1,404.166,389.8a5.423,5.423,0,0,0-3.59,2.911,20.428,20.428,0,0,1-4.852,3.784c-.291.97-2.523-.679-1.941,1.456h0c-1.65.582-3.3,1.164-4.076,2.911-2.62,2.62-6.21,3.882-9.025,6.308-.873,1.164-2.329,1.553-3.59,2.232a6.5,6.5,0,0,1-1.941,0c-.97-.291-.1.388-.388.582a1.3,1.3,0,0,1-.582.679c-.582.582-2.038-.582-2.135,1.067h0c-2.717.97-5.531,1.65-7.569,3.882-8.539,4.561-17.758,7.375-26.977,10.286a10.788,10.788,0,0,0-1.553.679c-1.553,1.553-3.687.679-5.434,1.359h0c-.582.776-1.456.679-2.329.776-1.261.291-2.717-.485-3.785.776-1.553.873-3.3.776-4.949.97a3.418,3.418,0,0,0-3.785.582,2.134,2.134,0,0,1-1.359.194,3.7,3.7,0,0,1-.97-.291c-.776-.388-1.359-.388-1.359.679-2.038.388-4.173-.291-6.113.388H293.056c4.367-4.949,9.607-9.413,13.682-14.944a6.9,6.9,0,0,1,2.135-2.62c.485-.485.873-.97,1.359-1.456a27.331,27.331,0,0,1,4.949-6.6,15.054,15.054,0,0,0,3.2-5.531,1.565,1.565,0,0,1,.873-.291c.1,0,.194.1.291.1,1.067.873,1.844,2.62,3.59,1.844,1.941-.873,1.262-2.814,1.067-4.27-.194-1.553-.776-2.814.1-4.464.776-1.359-.873-2.135-1.456-3.105.1-3.4,1.553-6.4,1.456-9.9a29.192,29.192,0,0,0-8.733-20.184c-1.553-2.232-4.076-3.4-5.919-5.337A2.263,2.263,0,0,0,307.612,354a26.257,26.257,0,0,1-3.59-2.038,12.336,12.336,0,0,0-5.337-2.814c-4.658-3.008-10.286-3.979-15.041-6.793a64.659,64.659,0,0,0-13.391-4.076c-.679-.485-1.65,0-2.232-.582a11.553,11.553,0,0,0-4.755-1.262c-.388.194-.873.291-1.164-.194-4.076-1.553-8.345-1.941-12.518-3.008-1.747-2.135-4.076-.485-6.016-1.067a2.871,2.871,0,0,1-.97-.194,12.3,12.3,0,0,0-6.987-.873c-4.367-.873-8.733-.97-13-2.232a63.785,63.785,0,0,0-11.354-1.456c-1.747-.679-3.59,0-5.434-.388-.873-1.747-2.329-.388-3.493-.582a1.565,1.565,0,0,1-.873-.291c-.485-.194-.97-.388-1.553-.679-.97-.873-2.135-.388-3.2-.194-5.919-.582-11.839-1.262-17.661-1.844-.194-1.359,1.067-.776,1.553-1.067-5.337.776-10.674-.1-16.011-.194H163.51c.485-1.941,1.747-.679,2.523-.97-6.113.291-12.421-.194-18.923-.194.388-1.747,1.553-.97,2.232-1.359.1-.291.1,0-.1,0-4.852.485-9.8.776-14.556-.873a7.463,7.463,0,0,0-4.367.1c-6.5.291-12.615-1.65-18.826-3.4-.291-1.941-1.65-.485-2.426-.679-1.844-.291-3.687-.485-5.24-1.65a3.979,3.979,0,0,0-3.008-1.359,6.687,6.687,0,0,1-.776-.291,9.907,9.907,0,0,0-2.814-1.067,5.765,5.765,0,0,1-.776-.388c-1.164-.873-2.62-.582-3.882-.776-2.717-.388-4.852-2.038-7.181-3.3C74.137,300.139,63.269,293.638,53.953,285a104.856,104.856,0,0,1-26.492-38.039,11.344,11.344,0,0,1-.582-1.941c-.776-2.038.1-4.658-2.038-6.211h0c-.1-1.747.873-3.687-1.359-4.852-.776-.97-.388-2.232-.776-3.4-.388-.388,1.262,0,.194-.582-.485-.291-.291-1.067-.776-1.456-1.456-4.464-1.262-9.122-2.135-13.585a1.985,1.985,0,0,1,0-1.067,80.382,80.382,0,0,0-.194-11.839c0-1.261-.485-2.62.291-3.882.388-3.4.873-6.89,1.262-10.286,1.844-6.89,3.008-13.877,6.016-20.378,2.717-.776,2.717-2.62,1.844-4.852A101.559,101.559,0,0,1,40.368,141c1.65-.291,1.844-1.553,1.941-2.911a4.22,4.22,0,0,1,.679-.582c1.261-1.164,2.426-2.329,2.717-4.173h0c.97-1.359,2.911-1.941,3.008-3.979.388-.679.776-1.359,1.164-2.135,6.308-6.5,12.324-13.391,19.5-19.117,2.62-2.135,5.337-4.076,8.054-6.016.485-.582,2.038.582,1.747-1.164,9.316-7.084,19.7-12.324,30.373-16.885,1.067-.485,2.038-.97,3.008-1.456.291-.485.679-.388,1.067-.388L127.9,77.533c.97-.873,2.329-.485,3.3-1.164.97-.1,1.941-.291,2.911-.388,1.65.1,3.2.1,4.561-1.067,3.2-1.553,6.89-1.262,10.286-2.038,4.658.388,9.122-1.844,13.877-.97.388-.291-.194-.679,0-.291.1.194,0,.291-.194.291-1.65,0-3.3.485-4.949-.291.1-.194.1-.291.194-.485,1.747-1.65,3.882-.679,5.822-.97,6.6-.776,13.2-1.553,19.893-1.262,1.456.1,3.687-.776,4.173,1.067s-1.553,2.717-3.008,3.493c-.388.388-.776.873-1.164,1.262-1.65,3.493-4.949,5.628-7.569,8.248a49.309,49.309,0,0,0-7.375,9.413c-1.164,3.105-3.4,5.434-4.949,8.345a95.273,95.273,0,0,0-7.278,18.923c-.194.485-.388.97-.582,1.359a23.625,23.625,0,0,0,.291,10.092c.1.485,0,1.067.388,1.456-.194,3.59,2.329,6.308,3.3,9.51,1.067,3.008,2.523,5.822,5.434,7.472,9.995,10.092,22.416,15.817,35.71,20.184a10.518,10.518,0,0,1,1.844.776c3.785,1.553,7.472,3.493,11.742,2.523a36.12,36.12,0,0,1,8.442,2.232c5.822,1.747,11.936,1.844,17.758,3.4.97.873,2.135.291,3.2.291.291-.1.485-.1.776-.194,4.755-.388,9.219,1.262,13.974,1.359,2.62.1,5.434-.776,7.86.776.1,1.164-.679.776-.679.776,1.65-.485,3.979-.1,6.21-.582,24.26.97,48.519.485,72.779,0,5.919.194,11.936-.1,17.855,0a77.191,77.191,0,0,0,8.248.291c2.038.291,4.27-.679,6.113.776.1.194.194.291.291.485a1.489,1.489,0,0,1-1.65.388,40.736,40.736,0,0,0,4.755-.1c2.329.291,4.561.582,6.89.873C389.222,183.887,391.066,183.6,392.521,184.857Z" transform="translate(-0.386 -1.85)"/><path class="c" d="M29.541,165.1c.97,1.164,2.232,2.426,1.456,4.076-.679,1.456-2.232.582-3.4.776A13.083,13.083,0,0,1,29.541,165.1Z" transform="translate(-0.622 -4.703)"/><path class="d" d="M46.317,135c1.844,3.105-1.261,3.105-2.717,4.173A9.481,9.481,0,0,1,46.317,135Z" transform="translate(-1.096 -3.811)"/><path class="d" d="M42.941,139.9c.291.679,1.456,1.067.485,2.232-.776.97-1.359,1.359-2.426.679A6.707,6.707,0,0,1,42.941,139.9Z" transform="translate(-1.019 -3.956)"/><path class="d" d="M49.408,130.9c.97,2.814-1.456,3.105-3.008,3.979C46.885,133.229,48.341,132.161,49.408,130.9Z" transform="translate(-1.179 -3.69)"/><path class="e" d="M11.6,255.4h.582v6.016H11.6Z" transform="translate(-0.148 -7.377)"/><path class="f" d="M352.129,184.792l-20.281.582c-17.079.291-34.061.485-51.139-.582a12.739,12.739,0,0,0-2.717.1c-1.553.291-3.105.582-4.561-.194-6.016-.679-11.936-1.262-17.952-1.941-1.359-.194-2.62-.485-3.979-.679a5.149,5.149,0,0,1,5.143-.291c2.717.97,5.531.776,8.345,1.067,10.383,1.164,20.766,1.067,31.149,1.941,4.464.388,9.025-.776,13.488-.485,13.488.679,26.977,0,40.465-.388,5.628-.194,11.451-1.747,16.982-.873a115.138,115.138,0,0,0,16.3,1.164c1.164,0,.679.873.485,1.456-1.941-.1-3.882-.1-5.822-.194-2.814-.582-5.725-.1-8.636-.291C363.677,184.889,357.952,185.374,352.129,184.792Z" transform="translate(-7.252 -5.18)"/><path class="g" d="M472.058,308.584c1.65-9.413,3.687-18.826,3.882-28.529.485-21.931-4.561-42.018-18.34-59.582-1.067-1.359-2.717-2.329-3.3-4.173,2.717.291,3.882,2.814,5.143,4.464,3.688,5.143,7.86,10.189,10.286,16.108,1.359,3.493,2.038,7.181,3.2,10.771a91.256,91.256,0,0,1,4.27,28.335,96.371,96.371,0,0,1-1.941,20.96C474.387,300.918,474.1,304.993,472.058,308.584Z" transform="translate(-13.258 -6.219)"/><path class="h" d="M87.1,312.9c2.426.873,4.949,1.844,7.375,2.717,1.262.679,3.105,0,4.076,1.553v-.1c1.164.485,2.523.291,3.493,1.358l-.1-.1c1.164.485,2.62.1,3.493,1.262a15.854,15.854,0,0,0,5.531,1.65c.582.1,1.359-.194,1.844.388a86.081,86.081,0,0,0,19.117,4.076l.291.194v.291c-5.725.582-11.159-.679-16.594-2.329-4.852-1.553-10.092-1.844-14.75-4.27a2.41,2.41,0,0,0-1.65,0c-2.135.582-5.143,3.3-4.464-2.232.1-.776-1.844-.582-2.814.291-.388.388-.97.776-1.456.291-.679-.485-.485-.873.194-1.553.97-.873-.679-.679-.776-1.067C89.524,313.87,86.613,315.229,87.1,312.9Z" transform="translate(-2.382 -9.079)"/><path class="i" d="M332.068,400.4c2.62.776,3.4,2.329,1.553,4.464-1.456,1.65,1.261,2.426.485,3.979-.776,1.358,1.165,3.784-1.553,4.464-2.523.679-3.979-.582-4.755-2.814-.291-1.65.582-2.814,1.553-3.979l.582-1.456C330.612,403.408,330.612,401.564,332.068,400.4Z" transform="translate(-9.51 -11.671)"/><path class="j" d="M188.98,73.335c.97-1.067,1.941-2.135,3.3-3.687-10.48-.582-20.281.679-30.179,1.262,0-1.456,1.067-1.456,2.135-1.553A185.444,185.444,0,0,1,192.667,68h0C193.541,71.006,192.764,72.17,188.98,73.335Z" transform="translate(-4.605 -1.825)"/><path class="k" d="M133.591,326.753c-.1-.194-.194-.291-.291-.485a4.085,4.085,0,0,1,4.464-.679c4.852,2.232,9.995.776,14.944,1.261.291,0,.679.1,1.067.1-.582,1.164-2.038,0-3.008,1.456,6.7-1.067,12.906-.194,19.5-.291-1.164,1.261-2.814.1-3.59,1.456a282.355,282.355,0,0,1-28.626-2.426C136.5,327.044,135.047,326.85,133.591,326.753Z" transform="translate(-3.752 -9.444)"/><path class="l" d="M331.948,399.461c-.776,1.553-.873,3.4-2.135,4.658.873-3.4.679-6.89,2.232-10.383,1.067-2.426.485-6.308-.1-9.607-1.164-6.016-4.852-10.48-8.248-15.235a.373.373,0,0,1,.679,0C333.986,377.627,335.345,389.369,331.948,399.461Z" transform="translate(-9.39 -10.731)"/><path class="m" d="M160.5,120.268c1.359-10.286,6.21-19.117,12.227-27.268,1.067,3.008-2.038,4.173-2.911,6.308-1.067,2.426-1.941,5.531-3.2,7.181C163.411,110.758,164.09,116.386,160.5,120.268Z" transform="translate(-4.557 -2.567)"/><path class="n" d="M438.714,204.075c-.388.388-.388,1.456-1.359.582-1.553-1.456-2.814-3.493-5.434-1.456-.873.679-1.067-.291-1.067-1.261,0-2.038-.582-3.008-3.008-2.038a4.981,4.981,0,0,1-5.046-.873c.582-1.844,3.493,0,3.688-2.329A56.173,56.173,0,0,1,438.714,204.075Z" transform="translate(-12.325 -5.638)"/><path class="o" d="M336.525,438.9c.776,0,1.65-.1,2.426-.1.291.679,1.456.776,1.359,1.65-8.733,0-17.176,3.105-25.909,2.426,2.038-1.067,4.464-.1,6.5-1.262a1.628,1.628,0,0,1,1.844-.194,7.5,7.5,0,0,1,1.456-.194c.97-.97,2.135-.776,3.3-.485a16.209,16.209,0,0,0,5.628-1.164C334.1,438.7,335.457,439.576,336.525,438.9Z" transform="translate(-9.115 -12.808)"/><path class="p" d="M228.5,336.7l13.682,1.747a12.246,12.246,0,0,1,6.7,1.067h-.1c1.067.97,2.911-.679,3.59,1.262a53.977,53.977,0,0,1-16.691-2.523,14.213,14.213,0,0,0-4.076-.194C230.441,338.059,229.179,338.059,228.5,336.7Z" transform="translate(-6.571 -9.784)"/><path class="q" d="M291.5,350.6c5.24,1.65,10.771,3.008,15.041,6.793a4.707,4.707,0,0,1-4.173-1.359c-2.135-2.135-5.434-1.553-8.054-2.814C293.052,352.735,291.208,352.832,291.5,350.6Z" transform="translate(-8.436 -10.196)"/><path class="r" d="M466.435,328.069c.291-.679.582-1.262.873-1.941-.388-1.262.679-1.844,1.067-2.814.485-.97.873-1.844,1.359-2.814a8.667,8.667,0,0,1-.485,4.658,23.942,23.942,0,0,0-2.814,8.151c-.194,1.456-1.067,1.553-2.135,1.456,0-.388.1-.873.1-1.262A23.088,23.088,0,0,1,466.435,328.069Z" transform="translate(-13.554 -9.304)"/><path class="s" d="M324.048,368.648h-.679c-3.4-3.008-7.957-4.464-10.868-8.151,1.65-.485,2.523,1.164,3.882,1.456.776.388,1.844.582,2.135,1.65C320.263,365.252,322.689,366.417,324.048,368.648Z" transform="translate(-9.059 -10.486)"/><path class="t" d="M180.7,83.048a46.889,46.889,0,0,1,7.569-8.248C188.172,79.652,184.485,81.4,180.7,83.048Z" transform="translate(-5.156 -2.028)"/><path class="k" d="M168.8,329.7h18.049c-1.164,1.067-2.814,0-3.59,1.359A90.054,90.054,0,0,1,168.8,329.7Z" transform="translate(-4.803 -9.577)"/><path class="u" d="M161.633,71.4h5.531c-.679,1.067-1.456.679-2.038.679-2.62.194-5.24-.388-7.86,1.164a3.471,3.471,0,0,1-4.367-.582A29.26,29.26,0,0,1,161.633,71.4Z" transform="translate(-4.332 -1.928)"/><path class="t" d="M228.862,178.411c-3.008-.582-5.919-1.067-8.928-1.65-.776-.194-1.844.388-2.135-.873,3.59-1.262,6.793.776,10.286,1.262C228.668,177.149,228.765,177.828,228.862,178.411Z" transform="translate(-6.254 -5.01)"/><path class="v" d="M217.495,175.732c.679.291,1.456.582,2.135.873-4.464,1.164-8.054-1.747-12.13-2.717.1-.1.1-.194.194-.194a6.176,6.176,0,0,1,.679-.194C211.382,174.276,214.39,175.053,217.495,175.732Z" transform="translate(-5.949 -4.951)"/><path class="w" d="M20.072,201.694v3.979a72.326,72.326,0,0,1,0,12.13,1.8,1.8,0,0,0-.194.679c-1.262-5.628-.485-11.257-.388-16.885a.978.978,0,0,1,.291-.1C19.878,201.6,19.975,201.694,20.072,201.694Z" transform="translate(-0.372 -5.78)"/><path class="r" d="M470.1,319.648c.776-2.814,1.164-5.628,2.523-8.248a21.665,21.665,0,0,1-.485,6.6C471.75,319.26,471.264,319.648,470.1,319.648Z" transform="translate(-13.726 -9.035)"/><path class="x" d="M169.533,151.672c-2.717-.679-5.822-4.852-5.434-7.472C165.846,146.723,167.689,149.246,169.533,151.672Z" transform="translate(-4.663 -4.084)"/><path class="y" d="M24.8,243.682c.776-.388,1.553-1.067,2.329-.1a1.346,1.346,0,0,1-.194,2.038c-1.359,1.359,1.359,2.911-.1,4.27A15.642,15.642,0,0,1,24.8,243.682Z" transform="translate(-0.539 -7.012)"/><path class="z" d="M449.1,361.908c.1-3.882,1.456-6.21,3.882-6.307a.354.354,0,0,1,.194.485.425.425,0,0,1-.1.291C451.72,358.123,450.362,360.064,449.1,361.908Z" transform="translate(-13.104 -10.344)"/><path class="aa" d="M323.749,416.5a21.833,21.833,0,0,1-4.949,6.6C318.606,419.508,321.226,418.15,323.749,416.5Z" transform="translate(-9.245 -12.147)"/><path class="ab" d="M374.8,426.081c1.65-3.008,4.27-4.076,7.569-3.882C380.137,424.043,377.42,424.916,374.8,426.081Z" transform="translate(-10.903 -12.315)"/><path class="ac" d="M206.8,333.888c.194-.1.485-.1.679-.194,1.067-.1,2.232-.485,3.3.291,1.747,1.067,3.979.1,5.725,1.164-2.329,0-4.755.1-7.084.1C208.353,335.15,207.091,335.538,206.8,333.888Z" transform="translate(-5.928 -9.69)"/><path class="y" d="M23.4,238.7c3.008.873,3.3,1.844,1.359,4.852A9.64,9.64,0,0,1,23.4,238.7Z" transform="translate(-0.497 -6.882)"/><path class="ad" d="M423,195.159c-.1,1.359-.97,1.65-2.038,1.456-1.747-.291-.97-1.844-1.359-2.814A6.175,6.175,0,0,1,423,195.159Z" transform="translate(-12.23 -5.552)"/><path class="ae" d="M159.876,133.368a18.843,18.843,0,0,1,0-10.868c0,2.717.1,5.337.1,8.054A2.086,2.086,0,0,1,159.876,133.368Z" transform="translate(-4.515 -3.441)"/><path class="af" d="M253.09,340.759c-.97-.97-2.62-.1-3.59-1.262,1.553,0,3.105,0,4.658-.1,1.164,0,2.232.1,2.135,1.747C255.128,341.05,254.061,340.856,253.09,340.759Z" transform="translate(-7.193 -9.864)"/><path class="ag" d="M403.743,188.354c-1.747-.291-3.493-.679-5.143-.97,1.456-.873,3.008-.388,4.464-.388C403.743,187,404.81,187.287,403.743,188.354Z" transform="translate(-11.608 -5.347)"/><path class="ah" d="M400.8,411.01c.1-2.717,1.844-3.105,4.076-2.911A12.087,12.087,0,0,1,400.8,411.01Z" transform="translate(-11.673 -11.897)"/><path class="ai" d="M413.852,192.438c-1.941.388-3.2-.97-4.852-1.553v-.291c0-.1.194-.194.194-.194a10.84,10.84,0,0,1,5.531,1.941A.547.547,0,0,1,413.852,192.438Z" transform="translate(-11.916 -5.452)"/><path class="ad" d="M414,192.494c.291-.1.679-.1.97-.194a6.945,6.945,0,0,1,4.561,1.456C417.687,193.367,415.262,195.211,414,192.494Z" transform="translate(-12.064 -5.508)"/><path class="aj" d="M453.2,356.17c0-.194-.1-.485-.1-.679.873-1.164,1.747-2.426,2.717-3.59C455.914,353.841,455.332,355.49,453.2,356.17Z" transform="translate(-13.222 -10.234)"/><path class="ak" d="M412,402.608c0-2.523,1.261-3.3,3.59-2.911A11.319,11.319,0,0,1,412,402.608Z" transform="translate(-12.005 -11.647)"/><path class="al" d="M142.161,74.9c-1.067,2.426-2.911,1.359-4.561,1.067A11.175,11.175,0,0,1,142.161,74.9Z" transform="translate(-3.879 -2.031)"/><path class="am" d="M387.664,419.247c1.261-.582,2.426-1.164,3.688-1.747a5.276,5.276,0,0,1-4.658,3.008c-.1-.194-.1-.291-.194-.485A1.5,1.5,0,0,1,387.664,419.247Z" transform="translate(-11.25 -12.177)"/><path class="o" d="M339.7,438.758a17.885,17.885,0,0,1,5.434-1.358C343.97,440.214,341.544,438.273,339.7,438.758Z" transform="translate(-9.864 -12.766)"/><path class="l" d="M329.238,406.6c0,1.553-1.164,2.62-1.553,3.979a.874.874,0,0,0-.485.1C327.2,409.026,327.006,407.182,329.238,406.6Z" transform="translate(-9.494 -11.854)"/><path class="an" d="M391.337,186.491c-1.747.873-3.493.291-5.337-.1a17.327,17.327,0,0,1,2.232-.194C389.3,186.2,390.27,186.394,391.337,186.491Z" transform="translate(-11.235 -5.327)"/><path class="aa" d="M317.33,424.8a3.3,3.3,0,0,1-2.135,2.62C314.516,425.479,315.971,425.091,317.33,424.8Z" transform="translate(-9.133 -12.393)"/><path class="ao" d="M134.5,76.3c-1.067.388-1.941,1.553-3.3,1.164C131.588,74.84,133.529,77.072,134.5,76.3Z" transform="translate(-3.69 -2.068)"/><path class="ap" d="M444.1,369.01c-.1-1.553-.388-3.2,2.038-2.911A6.148,6.148,0,0,1,444.1,369.01Z" transform="translate(-12.954 -10.654)"/><path class="ab" d="M382.6,422.148c-.679-3.3,1.941-.679,2.62-1.456.1,1.164-1.067.679-1.456,1.261C383.373,422.051,382.985,422.051,382.6,422.148Z" transform="translate(-11.131 -12.264)"/><path class="am" d="M383.8,421.949c.485-.388.97-.873,1.456-1.261h0c.291-.485.679-.485,1.164-.291l.194.194C386.323,422.434,384.965,421.852,383.8,421.949Z" transform="translate(-11.17 -12.259)"/><path class="aq" d="M160.59,130.977c.194-.291.291-1.164.582-.485a3,3,0,0,1-.388,3.2A2.346,2.346,0,0,1,160.59,130.977Z" transform="translate(-4.55 -3.67)"/><path class="ar" d="M250.8,182.191c-1.067.388-2.232,1.359-3.2-.291Z" transform="translate(-7.137 -5.2)"/><path class="as" d="M202,332.982c1.067-.873,2.232-.582,3.4-.388,0,0,.1.194,0,.291,0,.1-.1.194-.194.291C204.135,333.176,203.067,333.079,202,332.982Z" transform="translate(-5.786 -9.656)"/><path class="ah" d="M404.976,408.055c-.291-.388-.776-.97-.776-.97.776-.873,1.844-.291,2.717-.388A13.874,13.874,0,0,0,404.976,408.055Z" transform="translate(-11.774 -11.854)"/><path class="y" d="M22.1,233.1c0,.776,2.523.873.485,2.038A2.506,2.506,0,0,1,22.1,233.1Z" transform="translate(-0.458 -6.716)"/><path class="at" d="M80.847,101.6a9.525,9.525,0,0,1,.679.97c-.679.679-1.553.1-2.426.194A2.7,2.7,0,0,1,80.847,101.6Z" transform="translate(-2.147 -2.822)"/><path class="j" d="M193.5,67.861c.1-.679.194-1.359,1.164-1.262.194,0,.388.291.388.388-.194.873-.873.873-1.553.873Z" transform="translate(-5.535 -1.785)"/><path class="au" d="M116.408,82.288a3.476,3.476,0,0,0-1.067.388c-.582-.1-1.067-.1-1.941-.194A2.655,2.655,0,0,1,116.408,82.288Z" transform="translate(-3.163 -2.239)"/><path class="av" d="M160.579,130.994c.1.873.1,1.747.194,2.62-.1.194-.1.485-.194.679l-.679-.679c0-.97.1-1.844.1-2.814C160.191,130.9,160.385,130.9,160.579,130.994Z" transform="translate(-4.54 -3.687)"/><path class="aw" d="M269.241,344.3a4.871,4.871,0,0,0,1.164.194c-.873.679-1.747.776-3.105,0C268.173,344.4,268.659,344.4,269.241,344.3Z" transform="translate(-7.72 -10.009)"/><path class="ax" d="M275.379,345.8a3.011,3.011,0,0,1,2.232.582,7.89,7.89,0,0,1-2.62,0C274.214,345.994,275.087,345.9,275.379,345.8Z" transform="translate(-7.939 -10.054)"/><path class="ay" d="M355.2,184.892a153.187,153.187,0,0,1,17.661,0c.194.1.291.291.194.388l-.194.194H358.4C357.335,185.474,356.073,185.863,355.2,184.892Z" transform="translate(-10.323 -5.281)"/><path class="az" d="M20.1,218.03V205.9A28.4,28.4,0,0,1,20.1,218.03Z" transform="translate(-0.4 -5.911)"/><path class="ba" d="M249.3,339.551a26.073,26.073,0,0,1-6.7-1.067C244.929,337.9,247.355,337.319,249.3,339.551Z" transform="translate(-6.989 -9.821)"/><path class="bb" d="M466.438,328.3a14.125,14.125,0,0,1-2.038,5.531C464.594,331.793,464.012,329.464,466.438,328.3Z" transform="translate(-13.557 -9.535)"/><path class="bc" d="M373.4,185.479V184.9a24.113,24.113,0,0,1,8.345.582Z" transform="translate(-10.862 -5.286)"/><path class="bd" d="M274.129,184.7c1.553.1,3.008.1,4.561.194-2.135,1.164-4.464.388-6.89.485C272.576,184.506,273.45,184.991,274.129,184.7Z" transform="translate(-7.853 -5.283)"/><path class="bb" d="M468.433,323.4a5.877,5.877,0,0,1-1.067,2.814C464.552,323.982,467.851,324.176,468.433,323.4Z" transform="translate(-13.611 -9.39)"/><path class="be" d="M98.776,317.25A9.14,9.14,0,0,1,94.7,315.7C96.156,316.182,98.29,314.435,98.776,317.25Z" transform="translate(-2.609 -9.159)"/><path class="ak" d="M410.47,400.047c-.485,0-.97-.194-.97-.776a.943.943,0,0,1,1.067-.97c.485,0,.97.1.97.679C411.538,399.659,411.15,399.95,410.47,400.047Z" transform="translate(-11.931 -11.608)"/><path class="be" d="M102.393,318.554A4.677,4.677,0,0,1,98.9,317.2C100.356,317,101.811,316.71,102.393,318.554Z" transform="translate(-2.733 -9.202)"/><path class="bf" d="M105.893,319.856a5.7,5.7,0,0,1-3.493-1.262C103.661,318.692,105.408,317.624,105.893,319.856Z" transform="translate(-2.837 -9.243)"/><path class="ab" d="M386.461,420.463l-1.164.291c-.582-2.62,1.456-.97,2.232-1.359Z" transform="translate(-11.211 -12.228)"/><path class="bg" d="M337.1,438.9a5.965,5.965,0,0,1-3.4.679C334.476,438.022,335.932,439.187,337.1,438.9Z" transform="translate(-9.686 -12.806)"/><path class="bh" d="M210.8,333.972c-1.067-.1-2.135-.194-3.3-.291C208.664,333.2,209.829,332.419,210.8,333.972Z" transform="translate(-5.949 -9.676)"/><path class="bi" d="M327.8,440.781c-1.067.194-2.232.291-3.3.485C325.276,439.519,326.538,440.2,327.8,440.781Z" transform="translate(-9.414 -12.848)"/><path class="bj" d="M113.544,321.979c-.582-.1-1.261-.291-1.844-.388.776-.1,1.456-.194,2.232-.291.291,0,.582.194.194.485C114.029,321.979,113.835,321.979,113.544,321.979Z" transform="translate(-3.112 -9.328)"/><path class="bk" d="M318.635,363.549c-.679-.582-1.456-1.067-2.135-1.65C317.664,361.8,318.732,361.9,318.635,363.549Z" transform="translate(-9.177 -10.53)"/><path class="bl" d="M322.92,441.482c-.582.1-1.262.1-1.844.194-.194-.1-.485-.1-.582-.194-.291-.291-.291-.485.1-.485C321.367,440.9,322.24,440.706,322.92,441.482Z" transform="translate(-9.289 -12.87)"/></g></svg>